<svg width="40" height="40" viewBox="0 0 40 40" fill="none" xmlns="http://www.w3.org/2000/svg">
<rect width="40" height="40" rx="20" fill="#BFB9B1"/>
<path d="M25.2059 7.90381H14.7933C10.9056 7.90381 7.74097 11.0684 7.74097 14.9561V25.3687C7.74097 29.2564 10.9056 32.421 14.7933 32.421H25.2059C29.0936 32.421 32.2667 29.2564 32.2667 25.3687V14.9561C32.2667 11.0684 29.1021 7.90381 25.2059 7.90381ZM29.8337 14.9561V25.3687C29.8337 27.9208 27.758 29.9965 25.2059 29.9965H14.7933C12.2412 29.9965 10.1655 27.9208 10.1655 25.3687V14.9561C10.1655 12.404 12.2412 10.3283 14.7933 10.3283H25.2059C27.758 10.3283 29.8337 12.404 29.8337 14.9561Z" fill="#1A1612"/>
<path d="M20 13.7983C16.4866 13.7983 13.6367 16.6567 13.6367 20.1616C13.6367 23.6665 16.4951 26.5248 20 26.5248C23.5049 26.5248 26.3632 23.6665 26.3632 20.1616C26.3632 16.6567 23.5049 13.7983 20 13.7983ZM23.9387 20.1616C23.9387 22.3309 22.1693 24.1003 20 24.1003C17.8307 24.1003 16.0612 22.3309 16.0612 20.1616C16.0612 17.9923 17.8307 16.2228 20 16.2228C22.1693 16.2228 23.9387 17.9923 23.9387 20.1616Z" fill="#1A1612"/>
<path d="M26.4564 11.9517C25.5377 11.9517 24.7891 12.7003 24.7891 13.619C24.7891 14.5378 25.5377 15.2864 26.4564 15.2864C27.3752 15.2864 28.1238 14.5378 28.1238 13.619C28.1238 12.7003 27.3752 11.9517 26.4564 11.9517Z" fill="#1A1612"/>
</svg>
